# xmcd
#
# Track frame offsets:
#  150
#  10939
#  25742
#  40053
#  52761
#  71488
#  85584
#  96934
#  114657
#  125582
#  140785
#
# Disc length: 2098 seconds
#
# Revision: 0
# Processed by: cddbd v1.5.1PL2 Copyright (c) Steve Scherf et al.
# Submitted via: Collectorz.com_Music_Collector 6.9
#
DISCID=8b08300b
DTITLE=Liz Talley - Road To You
DYEAR=1900
DGENRE=
TTITLE0=Before I Met You
TTITLE1=A Stranger In My Arms
TTITLE2=It's Time To Cross That Bridge
TTITLE3=Ready For Love
TTITLE4=My Old Life
TTITLE5=Close Up The Honky Tonks
TTITLE6=Texas In Your Swing
TTITLE7=A Stitch In Time
TTITLE8=Rockabilly Baby
TTITLE9=The Road
TTITLE10=Right Back Here To You
EXTD=
EXTT0=
EXTT1=
EXTT2=
EXTT3=
EXTT4=
EXTT5=
EXTT6=
EXTT7=
EXTT8=
EXTT9=
EXTT10=
PLAYORDER=
